<svg width="32" height="32" viewBox="0 0 32 32" fill="none" xmlns="http://www.w3.org/2000/svg">
<path d="M28 0H4C1.79086 0 0 1.79086 0 4V28C0 30.2091 1.79086 32 4 32H28C30.2091 32 32 30.2091 32 28V4C32 1.79086 30.2091 0 28 0ZM2 7.71429C2 6.76751 2.89543 6 4 6H28C29.1046 6 30 6.76751 30 7.71429V28.2857C30 29.2325 29.1046 30 28 30H4C2.89543 30 2 29.2325 2 28.2857V7.71429Z" fill="#1C6DD0"/>
<path d="M13 14C14.1046 14 15 13.1046 15 12C15 10.8954 14.1046 10 13 10C11.8954 10 11 10.8954 11 12C11 13.1046 11.8954 14 13 14Z" fill="#1C6DD0"/>
<path d="M19 14C20.1046 14 21 13.1046 21 12C21 10.8954 20.1046 10 19 10C17.8954 10 17 10.8954 17 12C17 13.1046 17.8954 14 19 14Z" fill="#1C6DD0"/>
<path d="M25 14C26.1046 14 27 13.1046 27 12C27 10.8954 26.1046 10 25 10C23.8954 10 23 10.8954 23 12C23 13.1046 23.8954 14 25 14Z" fill="#1C6DD0"/>
<path d="M7 20C8.10457 20 9 19.1046 9 18C9 16.8954 8.10457 16 7 16C5.89543 16 5 16.8954 5 18C5 19.1046 5.89543 20 7 20Z" fill="#1C6DD0"/>
<path d="M13 20C14.1046 20 15 19.1046 15 18C15 16.8954 14.1046 16 13 16C11.8954 16 11 16.8954 11 18C11 19.1046 11.8954 20 13 20Z" fill="#1C6DD0"/>
<path d="M19 20C20.1046 20 21 19.1046 21 18C21 16.8954 20.1046 16 19 16C17.8954 16 17 16.8954 17 18C17 19.1046 17.8954 20 19 20Z" fill="#1C6DD0"/>
<path d="M25 20C26.1046 20 27 19.1046 27 18C27 16.8954 26.1046 16 25 16C23.8954 16 23 16.8954 23 18C23 19.1046 23.8954 20 25 20Z" fill="#1C6DD0"/>
<path d="M7 26C8.10457 26 9 25.1046 9 24C9 22.8954 8.10457 22 7 22C5.89543 22 5 22.8954 5 24C5 25.1046 5.89543 26 7 26Z" fill="#1C6DD0"/>
<path d="M13 26C14.1046 26 15 25.1046 15 24C15 22.8954 14.1046 22 13 22C11.8954 22 11 22.8954 11 24C11 25.1046 11.8954 26 13 26Z" fill="#1C6DD0"/>
<path d="M19 26C20.1046 26 21 25.1046 21 24C21 22.8954 20.1046 22 19 22C17.8954 22 17 22.8954 17 24C17 25.1046 17.8954 26 19 26Z" fill="#1C6DD0"/>
</svg>
