<svg width="24" height="24" viewBox="0 0 24 24" fill="none" xmlns="http://www.w3.org/2000/svg">
<path fill-rule="evenodd" clip-rule="evenodd" d="M3 20.25V10.5H4.5V20.25C4.5 20.6642 4.83579 21 5.25 21H18.75C19.1642 21 19.5 20.6642 19.5 20.25V10.5H21V20.25C21 21.4926 19.9926 22.5 18.75 22.5H5.25C4.00736 22.5 3 21.4926 3 20.25Z" fill="#F7F7F7"/>
<path fill-rule="evenodd" clip-rule="evenodd" d="M19.5 3.75001V9.00001L16.5 6.00001V3.75001C16.5 3.3358 16.8358 3.00001 17.25 3.00001H18.75C19.1642 3.00001 19.5 3.3358 19.5 3.75001Z" fill="#F7F7F7"/>
<path fill-rule="evenodd" clip-rule="evenodd" d="M10.9393 2.25001C11.5251 1.66422 12.4749 1.66422 13.0607 2.25001L23.0303 12.2197C23.3232 12.5126 23.3232 12.9874 23.0303 13.2803C22.7374 13.5732 22.2626 13.5732 21.9697 13.2803L12 3.31067L2.03033 13.2803C1.73744 13.5732 1.26256 13.5732 0.96967 13.2803C0.676777 12.9874 0.676777 12.5126 0.96967 12.2197L10.9393 2.25001Z" fill="#F7F7F7"/>
</svg>
