<svg width="25" height="25" viewBox="0 0 25 25" fill="none" xmlns="http://www.w3.org/2000/svg">
<path fill-rule="evenodd" clip-rule="evenodd" d="M24.25 12.25C24.25 11.3856 23.7301 10.6848 23.0887 10.6848H1.41129C0.769927 10.6848 0.25 11.3856 0.25 12.25C0.25 13.1144 0.769927 13.8152 1.41129 13.8152H23.0887C23.7301 13.8152 24.25 13.1144 24.25 12.25Z" fill="#F7F7F7"/>
<path fill-rule="evenodd" clip-rule="evenodd" d="M24.25 1.81522C24.25 0.950772 23.7301 0.25 23.0887 0.25H1.41129C0.769927 0.25 0.25 0.950772 0.25 1.81522C0.25 2.67966 0.769927 3.38043 1.41129 3.38043H23.0887C23.7301 3.38043 24.25 2.67966 24.25 1.81522Z" fill="#F7F7F7"/>
<path fill-rule="evenodd" clip-rule="evenodd" d="M24.25 22.6848C24.25 21.8203 23.7301 21.1196 23.0887 21.1196H1.41129C0.769927 21.1196 0.25 21.8203 0.25 22.6848C0.25 23.5492 0.769927 24.25 1.41129 24.25H23.0887C23.7301 24.25 24.25 23.5492 24.25 22.6848Z" fill="#F7F7F7"/>
</svg>
