<svg width="22" height="22" viewBox="0 0 22 22" fill="none" xmlns="http://www.w3.org/2000/svg">
<path d="M20.3333 9.66665H12.3333V1.66665C12.3333 1.31302 12.1928 0.973886 11.9427 0.723838C11.6927 0.473789 11.3535 0.333313 10.9999 0.333313C10.6463 0.333313 10.3072 0.473789 10.0571 0.723838C9.80706 0.973886 9.66658 1.31302 9.66658 1.66665V9.66665H1.66659C1.31296 9.66665 0.973825 9.80712 0.723776 10.0572C0.473728 10.3072 0.333252 10.6464 0.333252 11C0.333252 11.3536 0.473728 11.6927 0.723776 11.9428C0.973825 12.1928 1.31296 12.3333 1.66659 12.3333H9.66658V20.3333C9.66658 20.6869 9.80706 21.0261 10.0571 21.2761C10.3072 21.5262 10.6463 21.6666 10.9999 21.6666C11.3535 21.6666 11.6927 21.5262 11.9427 21.2761C12.1928 21.0261 12.3333 20.6869 12.3333 20.3333V12.3333H20.3333C20.6869 12.3333 21.026 12.1928 21.2761 11.9428C21.5261 11.6927 21.6666 11.3536 21.6666 11C21.6666 10.6464 21.5261 10.3072 21.2761 10.0572C21.026 9.80712 20.6869 9.66665 20.3333 9.66665Z" fill="white"/>
</svg>
