<svg width="36" height="35" viewBox="0 0 36 35" fill="none" xmlns="http://www.w3.org/2000/svg">
<path d="M30.6859 21.4313L30.2387 21.2077L29.7914 21.4313L19.157 26.7486C18.4287 27.1127 17.5715 27.1127 16.8432 26.7486L6.20869 21.4313L5.76148 21.2077L5.31426 21.4313L1.88339 23.1468C0.705716 23.7356 0.705723 25.4162 1.88339 26.005L17.0182 33.5724C17.6363 33.8815 18.3639 33.8815 18.982 33.5724L34.1167 26.005C35.2944 25.4162 35.2944 23.7356 34.1167 23.1468L30.6859 21.4313ZM30.6859 14.2575L30.2387 14.0339L29.7914 14.2575L19.157 19.5748C18.4287 19.9389 17.5715 19.9389 16.8432 19.5748L6.20869 14.2575L5.76148 14.0339L5.31426 14.2575L1.88339 15.973C0.705717 16.5618 0.705722 18.2424 1.88339 18.8312L17.0182 26.3986C17.6363 26.7077 18.3639 26.7077 18.982 26.3986L34.1167 18.8312C35.2944 18.2424 35.2944 16.5618 34.1167 15.973L30.6859 14.2575ZM34.1166 8.79918L18.9818 1.2318C18.3637 0.922733 17.6361 0.922734 17.018 1.2318L1.88325 8.79918C0.705579 9.38802 0.705586 11.0686 1.88325 11.6574L17.018 19.2248C17.6361 19.5339 18.3637 19.5339 18.9818 19.2248L34.1166 11.6574C35.2943 11.0686 35.2943 9.38801 34.1166 8.79918Z" fill="white" stroke="#1C6DD0" stroke-width="2"/>
</svg>
