<svg width="1366" height="706" viewBox="0 0 1366 706" fill="none" xmlns="http://www.w3.org/2000/svg">
<g clip-path="url(#clip0_10_116)">
<path d="M1366 311.354L1256.5 377.07C1147 443.49 928 573.864 709 583.906C490 593.244 271 480.488 52 461.637C-167 443.49 -386 517.486 -605 565.055C-824 612.624 -1043 630.242 -1152.5 640.284L-1262 649.622V706H-1152.5C-1043 706 -824 706 -605 706C-386 706 -167 706 52 706C271 706 490 706 709 706C928 706 1147 706 1256.5 706H1366V311.354Z" fill="#1C6DD0"/>
</g>
<defs>
<clipPath id="clip0_10_116">
<rect width="1366" height="706" fill="white" transform="matrix(-1 0 0 1 1366 0)"/>
</clipPath>
</defs>
</svg>
