<svg width="47" height="55" viewBox="0 0 47 55" fill="none" xmlns="http://www.w3.org/2000/svg">
<rect y="8" width="47" height="47" rx="10" fill="#1C6DD0"/>
<path d="M36.6405 22.1196C36.4584 21.936 36.2418 21.7903 36.0032 21.6909C35.7645 21.5915 35.5086 21.5403 35.25 21.5403C34.9915 21.5403 34.7356 21.5915 34.4969 21.6909C34.2583 21.7903 34.0417 21.936 33.8596 22.1196L19.27 36.7287L13.1405 30.5796C12.9514 30.397 12.7283 30.2534 12.4838 30.157C12.2393 30.0607 11.9782 30.0134 11.7154 30.018C11.4527 30.0225 11.1934 30.0788 10.9523 30.1835C10.7113 30.2883 10.4933 30.4395 10.3107 30.6285C10.1281 30.8175 9.9845 31.0407 9.88815 31.2852C9.79179 31.5297 9.74453 31.7908 9.74908 32.0535C9.75362 32.3163 9.80988 32.5756 9.91464 32.8166C10.0194 33.0577 10.1706 33.2757 10.3596 33.4583L17.8796 40.9783C18.0617 41.1619 18.2783 41.3075 18.5169 41.407C18.7556 41.5064 19.0115 41.5576 19.27 41.5576C19.5286 41.5576 19.7845 41.5064 20.0232 41.407C20.2618 41.3075 20.4784 41.1619 20.6605 40.9783L36.6405 24.9983C36.8392 24.8149 36.9979 24.5924 37.1064 24.3446C37.2149 24.0969 37.2709 23.8294 37.2709 23.5589C37.2709 23.2885 37.2149 23.021 37.1064 22.7732C36.9979 22.5255 36.8392 22.3029 36.6405 22.1196Z" fill="white"/>
<path d="M46.0379 0.868157C45.7601 0.593067 45.4296 0.374722 45.0654 0.225718C44.7012 0.0767141 44.3106 0 43.9161 0C43.5215 0 43.1309 0.0767141 42.7668 0.225718C42.4026 0.374722 42.0721 0.593067 41.7942 0.868157L19.5299 22.763L10.1759 13.5472C9.8874 13.2735 9.54689 13.0584 9.17376 12.914C8.80063 12.7695 8.40219 12.6987 8.00119 12.7055C7.60019 12.7124 7.20448 12.7967 6.83666 12.9537C6.46884 13.1107 6.13611 13.3373 5.85747 13.6206C5.57882 13.9039 5.35973 14.2383 5.21268 14.6047C5.06563 14.9712 4.99352 15.3625 5.00046 15.7563C5.00739 16.1501 5.09325 16.5387 5.25311 16.8999C5.41298 17.2612 5.64373 17.5879 5.93218 17.8616L17.408 29.1318C17.6859 29.4069 18.0164 29.6253 18.3806 29.7743C18.7447 29.9233 19.1354 30 19.5299 30C19.9244 30 20.315 29.9233 20.6792 29.7743C21.0434 29.6253 21.3739 29.4069 21.6517 29.1318L46.0379 5.18255C46.3412 4.90772 46.5833 4.57415 46.7489 4.20288C46.9145 3.83161 47 3.43068 47 3.02535C47 2.62003 46.9145 2.2191 46.7489 1.84783C46.5833 1.47656 46.3412 1.14299 46.0379 0.868157Z" fill="white"/>
</svg>
